<?xml version="1.0" encoding="UTF-8" standalone="no"?>
<!DOCTYPE svg PUBLIC "-//W3C//DTD SVG 1.1//EN"
 "http://www.w3.org/Graphics/SVG/1.1/DTD/svg11.dtd">
<!-- Generated by graphviz version 2.43.0 (0)
 -->
<!-- Title: dependency&#45;cruiser output Pages: 1 -->
<svg width="647pt" height="308pt"
 viewBox="0.00 0.00 647.00 308.00" xmlns="http://www.w3.org/2000/svg" xmlns:xlink="http://www.w3.org/1999/xlink">
<g id="graph0" class="graph" transform="scale(1 1) rotate(0) translate(4 304)">
<title>dependency&#45;cruiser output</title>
<polygon fill="white" stroke="transparent" points="-4,4 -4,-304 643,-304 643,4 -4,4"/>
<g id="clust1" class="cluster">
<title>cluster_src</title>
<path fill="#ffffff" stroke="black" stroke-width="2" d="M20,-8C20,-8 619,-8 619,-8 625,-8 631,-14 631,-20 631,-20 631,-280 631,-280 631,-286 625,-292 619,-292 619,-292 20,-292 20,-292 14,-292 8,-286 8,-280 8,-280 8,-20 8,-20 8,-14 14,-8 20,-8"/>
<text text-anchor="middle" x="319.5" y="-280.8" font-family="Helvetica,sans-Serif" font-weight="bold" font-size="9.00">src</text>
</g>
<g id="clust2" class="cluster">
<title>cluster_src/modules</title>
<path fill="#ffffff" stroke="black" stroke-width="2" d="M90,-16C90,-16 611,-16 611,-16 617,-16 623,-22 623,-28 623,-28 623,-194 623,-194 623,-200 617,-206 611,-206 611,-206 90,-206 90,-206 84,-206 78,-200 78,-194 78,-194 78,-28 78,-28 78,-22 84,-16 90,-16"/>
<text text-anchor="middle" x="350.5" y="-194.8" font-family="Helvetica,sans-Serif" font-weight="bold" font-size="9.00">modules</text>
</g>
<g id="clust3" class="cluster">
<title>cluster_src/modules/alerts</title>
<path fill="#ffffff" stroke="black" stroke-width="2" d="M98,-24C98,-24 444,-24 444,-24 450,-24 456,-30 456,-36 456,-36 456,-78 456,-78 456,-84 450,-90 444,-90 444,-90 98,-90 98,-90 92,-90 86,-84 86,-78 86,-78 86,-36 86,-36 86,-30 92,-24 98,-24"/>
<text text-anchor="middle" x="271" y="-78.8" font-family="Helvetica,sans-Serif" font-weight="bold" font-size="9.00">alerts</text>
</g>
<g id="clust4" class="cluster">
<title>cluster_src/modules/tracker</title>
<path fill="#ffffff" stroke="black" stroke-width="2" d="M175.5,-98C175.5,-98 603,-98 603,-98 609,-98 615,-104 615,-110 615,-110 615,-168 615,-168 615,-174 609,-180 603,-180 603,-180 175.5,-180 175.5,-180 169.5,-180 163.5,-174 163.5,-168 163.5,-168 163.5,-110 163.5,-110 163.5,-104 169.5,-98 175.5,-98"/>
<text text-anchor="middle" x="389.25" y="-168.8" font-family="Helvetica,sans-Serif" font-weight="bold" font-size="9.00">tracker</text>
</g>
<g id="clust5" class="cluster">
<title>cluster_src/shared</title>
<path fill="#ffffff" stroke="black" stroke-width="2" d="M517,-214C517,-214 575,-214 575,-214 581,-214 587,-220 587,-226 587,-226 587,-254 587,-254 587,-260 581,-266 575,-266 575,-266 517,-266 517,-266 511,-266 505,-260 505,-254 505,-254 505,-226 505,-226 505,-220 511,-214 517,-214"/>
<text text-anchor="middle" x="546" y="-254.8" font-family="Helvetica,sans-Serif" font-weight="bold" font-size="9.00">shared</text>
</g>
<!-- src/main.ts -->
<g id="node1" class="node">
<title>src/main.ts</title>
<g id="a_node1"><a xlink:href="src/main.ts" xlink:title="main.ts">
<path fill="#ddfeff" stroke="black" d="M64,-139C64,-139 22,-139 22,-139 19,-139 16,-136 16,-133 16,-133 16,-127 16,-127 16,-124 19,-121 22,-121 22,-121 64,-121 64,-121 67,-121 70,-124 70,-127 70,-127 70,-133 70,-133 70,-136 67,-139 64,-139"/>
<text text-anchor="start" x="28" y="-127.8" font-family="Helvetica,sans-Serif" font-size="9.00">main.ts</text>
</a>
</g>
</g>
<!-- src/modules/alerts/index.ts -->
<g id="node2" class="node">
<title>src/modules/alerts/index.ts</title>
<g id="a_node2"><a xlink:href="src/modules/alerts/index.ts" xlink:title="index.ts">
<path fill="#ddfeff" stroke="black" d="M142,-64C142,-64 100,-64 100,-64 97,-64 94,-61 94,-58 94,-58 94,-52 94,-52 94,-49 97,-46 100,-46 100,-46 142,-46 142,-46 145,-46 148,-49 148,-52 148,-52 148,-58 148,-58 148,-61 145,-64 142,-64"/>
<text text-anchor="start" x="105" y="-52.8" font-family="Helvetica,sans-Serif" font-size="9.00">index.ts</text>
</a>
</g>
</g>
<!-- src/main.ts&#45;&gt;src/modules/alerts/index.ts -->
<g id="edge1" class="edge">
<title>src/main.ts&#45;&gt;src/modules/alerts/index.ts</title>
<path fill="none" stroke="#000000" stroke-width="2" stroke-opacity="0.200000" d="M46.54,-121C50.81,-107.51 60.69,-82.13 78,-68 80.95,-65.59 84.34,-63.63 87.9,-62.03"/>
<polygon fill="#000000" fill-opacity="0.200000" stroke="#000000" stroke-width="2" stroke-opacity="0.200000" points="88.75,-63.95 93.57,-59.8 87.22,-60.04 88.75,-63.95"/>
</g>
<!-- src/modules/tracker/index.ts -->
<g id="node3" class="node">
<title>src/modules/tracker/index.ts</title>
<g id="a_node3"><a xlink:href="src/modules/tracker/index.ts" xlink:title="index.ts">
<path fill="#ddfeff" stroke="black" d="M219.5,-139C219.5,-139 177.5,-139 177.5,-139 174.5,-139 171.5,-136 171.5,-133 171.5,-133 171.5,-127 171.5,-127 171.5,-124 174.5,-121 177.5,-121 177.5,-121 219.5,-121 219.5,-121 222.5,-121 225.5,-124 225.5,-127 225.5,-127 225.5,-133 225.5,-133 225.5,-136 222.5,-139 219.5,-139"/>
<text text-anchor="start" x="182.5" y="-127.8" font-family="Helvetica,sans-Serif" font-size="9.00">index.ts</text>
</a>
</g>
</g>
<!-- src/main.ts&#45;&gt;src/modules/tracker/index.ts -->
<g id="edge2" class="edge">
<title>src/main.ts&#45;&gt;src/modules/tracker/index.ts</title>
<path fill="none" stroke="#000000" stroke-width="2" stroke-opacity="0.200000" d="M70.04,-130C96.28,-130 136.84,-130 165.14,-130"/>
<polygon fill="#000000" fill-opacity="0.200000" stroke="#000000" stroke-width="2" stroke-opacity="0.200000" points="165.33,-132.1 171.33,-130 165.33,-127.9 165.33,-132.1"/>
</g>
<!-- src/shared/event&#45;bus.ts -->
<g id="node4" class="node">
<title>src/shared/event&#45;bus.ts</title>
<g id="a_node4"><a xlink:href="src/shared/event-bus.ts" xlink:title="event&#45;bus.ts">
<path fill="#ddfeff" stroke="black" d="M573,-240C573,-240 519,-240 519,-240 516,-240 513,-237 513,-234 513,-234 513,-228 513,-228 513,-225 516,-222 519,-222 519,-222 573,-222 573,-222 576,-222 579,-225 579,-228 579,-228 579,-234 579,-234 579,-237 576,-240 573,-240"/>
<text text-anchor="start" x="521" y="-228.8" font-family="Helvetica,sans-Serif" font-size="9.00">event&#45;bus.ts</text>
</a>
</g>
</g>
<!-- src/main.ts&#45;&gt;src/shared/event&#45;bus.ts -->
<g id="edge3" class="edge">
<title>src/main.ts&#45;&gt;src/shared/event&#45;bus.ts</title>
<path fill="none" stroke="#000000" stroke-width="2" stroke-opacity="0.200000" d="M51.93,-139.26C73.03,-162.78 133.31,-223 197.5,-223 197.5,-223 197.5,-223 290,-223 366.88,-223 456.74,-226.68 506.63,-229.05"/>
<polygon fill="#000000" fill-opacity="0.200000" stroke="#000000" stroke-width="2" stroke-opacity="0.200000" points="506.71,-231.15 512.81,-229.34 506.91,-226.96 506.71,-231.15"/>
</g>
<!-- src/modules/alerts/alerts.public.ts -->
<g id="node8" class="node">
<title>src/modules/alerts/alerts.public.ts</title>
<g id="a_node8"><a xlink:href="src/modules/alerts/alerts.public.ts" xlink:title="alerts.public.ts">
<path fill="#ddfeff" stroke="black" d="M230,-64C230,-64 167,-64 167,-64 164,-64 161,-61 161,-58 161,-58 161,-52 161,-52 161,-49 164,-46 167,-46 167,-46 230,-46 230,-46 233,-46 236,-49 236,-52 236,-52 236,-58 236,-58 236,-61 233,-64 230,-64"/>
<text text-anchor="start" x="169" y="-52.8" font-family="Helvetica,sans-Serif" font-size="9.00">alerts.public.ts</text>
</a>
</g>
</g>
<!-- src/modules/alerts/index.ts&#45;&gt;src/modules/alerts/alerts.public.ts -->
<g id="edge8" class="edge">
<title>src/modules/alerts/index.ts&#45;&gt;src/modules/alerts/alerts.public.ts</title>
<path fill="none" stroke="#000000" stroke-width="2" stroke-opacity="0.200000" d="M148.41,-55C150.4,-55 152.45,-55 154.52,-55"/>
<polygon fill="#000000" fill-opacity="0.200000" stroke="#000000" stroke-width="2" stroke-opacity="0.200000" points="160.76,-57.1 154.76,-55 160.76,-52.9 160.76,-57.1"/>
</g>
<!-- src/modules/tracker/tracker.public.ts -->
<g id="node9" class="node">
<title>src/modules/tracker/tracker.public.ts</title>
<g id="a_node9"><a xlink:href="src/modules/tracker/tracker.public.ts" xlink:title="tracker.public.ts">
<path fill="#ddfeff" stroke="black" d="M323,-139C323,-139 255,-139 255,-139 252,-139 249,-136 249,-133 249,-133 249,-127 249,-127 249,-124 252,-121 255,-121 255,-121 323,-121 323,-121 326,-121 329,-124 329,-127 329,-127 329,-133 329,-133 329,-136 326,-139 323,-139"/>
<text text-anchor="start" x="257" y="-127.8" font-family="Helvetica,sans-Serif" font-size="9.00">tracker.public.ts</text>
</a>
</g>
</g>
<!-- src/modules/tracker/index.ts&#45;&gt;src/modules/tracker/tracker.public.ts -->
<g id="edge9" class="edge">
<title>src/modules/tracker/index.ts&#45;&gt;src/modules/tracker/tracker.public.ts</title>
<path fill="none" stroke="#000000" stroke-width="2" stroke-opacity="0.200000" d="M225.57,-130C230.97,-130 236.79,-130 242.65,-130"/>
<polygon fill="#000000" fill-opacity="0.200000" stroke="#000000" stroke-width="2" stroke-opacity="0.200000" points="248.99,-132.1 242.99,-130 248.99,-127.9 248.99,-132.1"/>
</g>
<!-- src/modules/alerts/alert&#45;handler.ts -->
<g id="node5" class="node">
<title>src/modules/alerts/alert&#45;handler.ts</title>
<g id="a_node5"><a xlink:href="src/modules/alerts/alert-handler.ts" xlink:title="alert&#45;handler.ts">
<path fill="#ddfeff" stroke="black" d="M322,-64C322,-64 256,-64 256,-64 253,-64 250,-61 250,-58 250,-58 250,-52 250,-52 250,-49 253,-46 256,-46 256,-46 322,-46 322,-46 325,-46 328,-49 328,-52 328,-52 328,-58 328,-58 328,-61 325,-64 322,-64"/>
<text text-anchor="start" x="258" y="-52.8" font-family="Helvetica,sans-Serif" font-size="9.00">alert&#45;handler.ts</text>
</a>
</g>
</g>
<!-- src/modules/tracker/tracker.contract.ts -->
<g id="node6" class="node">
<title>src/modules/tracker/tracker.contract.ts</title>
<g id="a_node6"><a xlink:href="src/modules/tracker/tracker.contract.ts" xlink:title="tracker.contract.ts">
<path fill="#ddfeff" stroke="black" d="M445,-124C445,-124 369,-124 369,-124 366,-124 363,-121 363,-118 363,-118 363,-112 363,-112 363,-109 366,-106 369,-106 369,-106 445,-106 445,-106 448,-106 451,-109 451,-112 451,-112 451,-118 451,-118 451,-121 448,-124 445,-124"/>
<text text-anchor="start" x="371" y="-112.8" font-family="Helvetica,sans-Serif" font-size="9.00">tracker.contract.ts</text>
</a>
</g>
</g>
<!-- src/modules/alerts/alert&#45;handler.ts&#45;&gt;src/modules/tracker/tracker.contract.ts -->
<g id="edge4" class="edge">
<title>src/modules/alerts/alert&#45;handler.ts&#45;&gt;src/modules/tracker/tracker.contract.ts</title>
<path fill="none" stroke="#000000" stroke-width="2" stroke-opacity="0.200000" d="M300.53,-64.17C310.61,-72.58 326.54,-84.93 342,-93 350.04,-97.2 359.05,-100.86 367.71,-103.94"/>
<polygon fill="#000000" fill-opacity="0.200000" stroke="#000000" stroke-width="2" stroke-opacity="0.200000" points="367.28,-106.01 373.64,-105.97 368.65,-102.04 367.28,-106.01"/>
</g>
<!-- src/modules/alerts/notify.strategy.ts -->
<g id="node7" class="node">
<title>src/modules/alerts/notify.strategy.ts</title>
<g id="a_node7"><a xlink:href="src/modules/alerts/notify.strategy.ts" xlink:title="notify.strategy.ts">
<path fill="#ddfeff" stroke="black" d="M442,-57C442,-57 372,-57 372,-57 369,-57 366,-54 366,-51 366,-51 366,-45 366,-45 366,-42 369,-39 372,-39 372,-39 442,-39 442,-39 445,-39 448,-42 448,-45 448,-45 448,-51 448,-51 448,-54 445,-57 442,-57"/>
<text text-anchor="start" x="374" y="-45.8" font-family="Helvetica,sans-Serif" font-size="9.00">notify.strategy.ts</text>
</a>
</g>
</g>
<!-- src/modules/alerts/alert&#45;handler.ts&#45;&gt;src/modules/alerts/notify.strategy.ts -->
<g id="edge5" class="edge">
<title>src/modules/alerts/alert&#45;handler.ts&#45;&gt;src/modules/alerts/notify.strategy.ts</title>
<path fill="none" stroke="#000000" stroke-width="2" stroke-opacity="0.200000" d="M328.3,-52.69C338.34,-52.08 349.28,-51.42 359.69,-50.79"/>
<polygon fill="#000000" fill-opacity="0.200000" stroke="#000000" stroke-width="2" stroke-opacity="0.200000" points="359.88,-52.89 365.75,-50.43 359.63,-48.69 359.88,-52.89"/>
</g>
<!-- src/modules/alerts/alerts.public.ts&#45;&gt;src/modules/alerts/alert&#45;handler.ts -->
<g id="edge6" class="edge">
<title>src/modules/alerts/alerts.public.ts&#45;&gt;src/modules/alerts/alert&#45;handler.ts</title>
<path fill="none" stroke="#000000" stroke-width="2" stroke-opacity="0.200000" d="M236.01,-55C238.58,-55 241.19,-55 243.79,-55"/>
<polygon fill="#000000" fill-opacity="0.200000" stroke="#000000" stroke-width="2" stroke-opacity="0.200000" points="243.86,-57.1 249.86,-55 243.86,-52.9 243.86,-57.1"/>
</g>
<!-- src/modules/alerts/alerts.public.ts&#45;&gt;src/modules/alerts/notify.strategy.ts -->
<g id="edge7" class="edge">
<title>src/modules/alerts/alerts.public.ts&#45;&gt;src/modules/alerts/notify.strategy.ts</title>
<path fill="none" stroke="#000000" stroke-width="2" stroke-opacity="0.200000" d="M224.1,-45.99C231.95,-43.54 240.74,-41.22 249,-40 285.95,-34.52 328.27,-37.19 359.66,-40.86"/>
<polygon fill="#000000" fill-opacity="0.200000" stroke="#000000" stroke-width="2" stroke-opacity="0.200000" points="359.57,-42.96 365.78,-41.6 360.08,-38.79 359.57,-42.96"/>
</g>
<!-- src/modules/tracker/tracker.public.ts&#45;&gt;src/modules/tracker/tracker.contract.ts -->
<g id="edge13" class="edge">
<title>src/modules/tracker/tracker.public.ts&#45;&gt;src/modules/tracker/tracker.contract.ts</title>
<path fill="none" stroke="#000000" stroke-width="2" stroke-opacity="0.200000" d="M329.27,-124.92C338.11,-123.78 347.61,-122.55 356.8,-121.36"/>
<polygon fill="#000000" fill-opacity="0.200000" stroke="#000000" stroke-width="2" stroke-opacity="0.200000" points="357.1,-123.44 362.79,-120.59 356.57,-119.27 357.1,-123.44"/>
</g>
<!-- src/modules/tracker/record&#45;sighting.command.ts -->
<g id="node10" class="node">
<title>src/modules/tracker/record&#45;sighting.command.ts</title>
<g id="a_node10"><a xlink:href="src/modules/tracker/record-sighting.command.ts" xlink:title="record&#45;sighting.command.ts">
<path fill="#ddfeff" stroke="black" d="M466,-154C466,-154 348,-154 348,-154 345,-154 342,-151 342,-148 342,-148 342,-142 342,-142 342,-139 345,-136 348,-136 348,-136 466,-136 466,-136 469,-136 472,-139 472,-142 472,-142 472,-148 472,-148 472,-151 469,-154 466,-154"/>
<text text-anchor="start" x="350" y="-142.8" font-family="Helvetica,sans-Serif" font-size="9.00">record&#45;sighting.command.ts</text>
</a>
</g>
</g>
<!-- src/modules/tracker/tracker.public.ts&#45;&gt;src/modules/tracker/record&#45;sighting.command.ts -->
<g id="edge12" class="edge">
<title>src/modules/tracker/tracker.public.ts&#45;&gt;src/modules/tracker/record&#45;sighting.command.ts</title>
<path fill="none" stroke="#000000" stroke-width="2" stroke-opacity="0.200000" d="M329.27,-135.08C331.31,-135.34 333.38,-135.61 335.48,-135.88"/>
<polygon fill="#000000" fill-opacity="0.200000" stroke="#000000" stroke-width="2" stroke-opacity="0.200000" points="341.55,-138.78 335.87,-135.93 342.09,-134.62 341.55,-138.78"/>
</g>
<!-- src/modules/tracker/record&#45;sighting.command.ts&#45;&gt;src/shared/event&#45;bus.ts -->
<g id="edge10" class="edge">
<title>src/modules/tracker/record&#45;sighting.command.ts&#45;&gt;src/shared/event&#45;bus.ts</title>
<path fill="none" stroke="#000000" stroke-width="2" stroke-opacity="0.200000" d="M465.97,-154.13C468.08,-155.28 470.1,-156.57 472,-158 482,-165.54 477.05,-173.32 485,-183 496.49,-196.98 512.64,-209.62 525.3,-218.41"/>
<polygon fill="#000000" fill-opacity="0.200000" stroke="#000000" stroke-width="2" stroke-opacity="0.200000" points="524.34,-220.3 530.48,-221.94 526.7,-216.83 524.34,-220.3"/>
</g>
<!-- src/modules/tracker/record&#45;sighting.schema.ts -->
<g id="node11" class="node">
<title>src/modules/tracker/record&#45;sighting.schema.ts</title>
<g id="a_node11"><a xlink:href="src/modules/tracker/record-sighting.schema.ts" xlink:title="record&#45;sighting.schema.ts">
<path fill="#ddfeff" stroke="black" d="M601,-154C601,-154 491,-154 491,-154 488,-154 485,-151 485,-148 485,-148 485,-142 485,-142 485,-139 488,-136 491,-136 491,-136 601,-136 601,-136 604,-136 607,-139 607,-142 607,-142 607,-148 607,-148 607,-151 604,-154 601,-154"/>
<text text-anchor="start" x="493" y="-142.8" font-family="Helvetica,sans-Serif" font-size="9.00">record&#45;sighting.schema.ts</text>
</a>
</g>
</g>
<!-- src/modules/tracker/record&#45;sighting.command.ts&#45;&gt;src/modules/tracker/record&#45;sighting.schema.ts -->
<g id="edge11" class="edge">
<title>src/modules/tracker/record&#45;sighting.command.ts&#45;&gt;src/modules/tracker/record&#45;sighting.schema.ts</title>
<path fill="none" stroke="#000000" stroke-width="2" stroke-opacity="0.200000" d="M472.09,-145C474.18,-145 476.27,-145 478.36,-145"/>
<polygon fill="#000000" fill-opacity="0.200000" stroke="#000000" stroke-width="2" stroke-opacity="0.200000" points="478.63,-147.1 484.63,-145 478.63,-142.9 478.63,-147.1"/>
</g>
</g>
</svg>
