<?xml version="1.0" encoding="UTF-8" standalone="no"?>
<!DOCTYPE svg PUBLIC "-//W3C//DTD SVG 1.1//EN"
 "http://www.w3.org/Graphics/SVG/1.1/DTD/svg11.dtd">
<!-- Generated by graphviz version 2.43.0 (0)
 -->
<!-- Title: dependency&#45;cruiser output Pages: 1 -->
<svg width="431pt" height="200pt"
 viewBox="0.00 0.00 431.00 200.00" xmlns="http://www.w3.org/2000/svg" xmlns:xlink="http://www.w3.org/1999/xlink">
<g id="graph0" class="graph" transform="scale(1 1) rotate(0) translate(4 196)">
<title>dependency&#45;cruiser output</title>
<polygon fill="white" stroke="transparent" points="-4,4 -4,-196 427,-196 427,4 -4,4"/>
<g id="clust1" class="cluster">
<title>cluster_src</title>
<path fill="#ffffff" stroke="black" stroke-width="2" d="M20,-8C20,-8 403,-8 403,-8 409,-8 415,-14 415,-20 415,-20 415,-172 415,-172 415,-178 409,-184 403,-184 403,-184 20,-184 20,-184 14,-184 8,-178 8,-172 8,-172 8,-20 8,-20 8,-14 14,-8 20,-8"/>
<text text-anchor="middle" x="211.5" y="-172.8" font-family="Helvetica,sans-Serif" font-weight="bold" font-size="9.00">src</text>
</g>
<g id="clust2" class="cluster">
<title>cluster_src/modules</title>
<path fill="#ffffff" stroke="black" stroke-width="2" d="M157,-52C157,-52 277,-52 277,-52 283,-52 289,-58 289,-64 289,-64 289,-92 289,-92 289,-98 283,-104 277,-104 277,-104 157,-104 157,-104 151,-104 145,-98 145,-92 145,-92 145,-64 145,-64 145,-58 151,-52 157,-52"/>
<text text-anchor="middle" x="217" y="-92.8" font-family="Helvetica,sans-Serif" font-weight="bold" font-size="9.00">modules</text>
</g>
<g id="clust3" class="cluster">
<title>cluster_src/shared</title>
<path fill="#ffffff" stroke="black" stroke-width="2" d="M309,-16C309,-16 395,-16 395,-16 401,-16 407,-22 407,-28 407,-28 407,-146 407,-146 407,-152 401,-158 395,-158 395,-158 309,-158 309,-158 303,-158 297,-152 297,-146 297,-146 297,-28 297,-28 297,-22 303,-16 309,-16"/>
<text text-anchor="middle" x="352" y="-146.8" font-family="Helvetica,sans-Serif" font-weight="bold" font-size="9.00">shared</text>
</g>
<g id="clust4" class="cluster">
<title>cluster_src/shared/ui</title>
<path fill="#ffffff" stroke="black" stroke-width="2" d="M317,-50C317,-50 387,-50 387,-50 393,-50 399,-56 399,-62 399,-62 399,-120 399,-120 399,-126 393,-132 387,-132 387,-132 317,-132 317,-132 311,-132 305,-126 305,-120 305,-120 305,-62 305,-62 305,-56 311,-50 317,-50"/>
<text text-anchor="middle" x="352" y="-120.8" font-family="Helvetica,sans-Serif" font-weight="bold" font-size="9.00">ui</text>
</g>
<!-- src/app.vue -->
<g id="node1" class="node">
<title>src/app.vue</title>
<g id="a_node1"><a xlink:href="src/app.vue" xlink:title="app.vue">
<path fill="#41f083" stroke="black" d="M131,-85C131,-85 89,-85 89,-85 86,-85 83,-82 83,-79 83,-79 83,-73 83,-73 83,-70 86,-67 89,-67 89,-67 131,-67 131,-67 134,-67 137,-70 137,-73 137,-73 137,-79 137,-79 137,-82 134,-85 131,-85"/>
<text text-anchor="start" x="93" y="-73.8" font-family="Helvetica,sans-Serif" font-size="9.00">app.vue</text>
</a>
</g>
</g>
<!-- src/modules/auth -->
<g id="node2" class="node">
<title>src/modules/auth</title>
<g id="a_node2"><a xlink:href="src/modules/auth" xlink:title="auth">
<polygon fill="#ffffcc" stroke="black" points="281,-78 229,-78 227,-76 227,-60 279,-60 281,-62 281,-78"/>
<polyline fill="none" stroke="black" points="279,-76 227,-76 "/>
<polyline fill="none" stroke="black" points="279,-76 279,-60 "/>
<polyline fill="none" stroke="black" points="279,-76 281,-78 "/>
<text text-anchor="start" x="244.5" y="-66.8" font-family="Helvetica,sans-Serif" font-size="9.00">auth</text>
</a>
</g>
</g>
<!-- src/app.vue&#45;&gt;src/modules/auth -->
<g id="edge1" class="edge">
<title>src/app.vue&#45;&gt;src/modules/auth</title>
<path fill="none" stroke="#000000" stroke-width="2" stroke-opacity="0.200000" d="M137.25,-82.81C139.86,-83.29 142.47,-83.71 145,-84 175.46,-87.54 183.85,-89.6 214,-84 218.61,-83.14 223.39,-81.76 227.94,-80.18"/>
<polygon fill="#000000" fill-opacity="0.200000" stroke="#000000" stroke-width="2" stroke-opacity="0.200000" points="228.68,-82.14 233.57,-78.08 227.21,-78.21 228.68,-82.14"/>
</g>
<!-- src/modules/dashboard -->
<g id="node3" class="node">
<title>src/modules/dashboard</title>
<g id="a_node3"><a xlink:href="src/modules/dashboard" xlink:title="no&#45;orphans">
<polygon fill="#ccffcc" stroke="orange" points="214,-78 155,-78 153,-76 153,-60 212,-60 214,-62 214,-78"/>
<polyline fill="none" stroke="orange" points="212,-76 153,-76 "/>
<polyline fill="none" stroke="orange" points="212,-76 212,-60 "/>
<polyline fill="none" stroke="orange" points="212,-76 214,-78 "/>
<text text-anchor="start" x="161" y="-66.8" font-family="Helvetica,sans-Serif" font-size="9.00" fill="orange">dashboard</text>
</a>
</g>
</g>
<!-- src/app.vue&#45;&gt;src/modules/dashboard -->
<g id="edge2" class="edge">
<title>src/app.vue&#45;&gt;src/modules/dashboard</title>
<path fill="none" stroke="#000000" stroke-width="2" stroke-opacity="0.200000" d="M137.22,-73.43C140.25,-73.14 143.37,-72.83 146.5,-72.52"/>
<polygon fill="#000000" fill-opacity="0.200000" stroke="#000000" stroke-width="2" stroke-opacity="0.200000" points="147.14,-74.57 152.9,-71.9 146.73,-70.39 147.14,-74.57"/>
</g>
<!-- src/shared/event&#45;bus.ts -->
<g id="node4" class="node">
<title>src/shared/event&#45;bus.ts</title>
<g id="a_node4"><a xlink:href="src/shared/event-bus.ts" xlink:title="event&#45;bus.ts">
<path fill="#ddfeff" stroke="black" d="M379,-42C379,-42 325,-42 325,-42 322,-42 319,-39 319,-36 319,-36 319,-30 319,-30 319,-27 322,-24 325,-24 325,-24 379,-24 379,-24 382,-24 385,-27 385,-30 385,-30 385,-36 385,-36 385,-39 382,-42 379,-42"/>
<text text-anchor="start" x="327" y="-30.8" font-family="Helvetica,sans-Serif" font-size="9.00">event&#45;bus.ts</text>
</a>
</g>
</g>
<!-- src/app.vue&#45;&gt;src/shared/event&#45;bus.ts -->
<g id="edge3" class="edge">
<title>src/app.vue&#45;&gt;src/shared/event&#45;bus.ts</title>
<path fill="none" stroke="#000000" stroke-width="2" stroke-opacity="0.200000" d="M119.57,-66.77C125.93,-60.57 135.18,-52.86 145,-49 200.21,-27.31 270.05,-26.97 312.58,-29.44"/>
<polygon fill="#000000" fill-opacity="0.200000" stroke="#000000" stroke-width="2" stroke-opacity="0.200000" points="312.53,-31.54 318.65,-29.82 312.8,-27.35 312.53,-31.54"/>
</g>
<!-- src/modules/auth&#45;&gt;src/shared/event&#45;bus.ts -->
<g id="edge9" class="edge">
<title>src/modules/auth&#45;&gt;src/shared/event&#45;bus.ts</title>
<path fill="none" stroke="#000000" stroke-width="2" stroke-opacity="0.200000" d="M281.27,-60.44C283.98,-59.13 286.61,-57.65 289,-56 293.4,-52.96 292.43,-49.79 297,-47 301.85,-44.03 307.32,-41.69 312.87,-39.84"/>
<polygon fill="#000000" fill-opacity="0.200000" stroke="#000000" stroke-width="2" stroke-opacity="0.200000" points="313.76,-41.76 318.9,-38.02 312.55,-37.74 313.76,-41.76"/>
</g>
<!-- src/shared/ui/app&#45;button.vue -->
<g id="node7" class="node">
<title>src/shared/ui/app&#45;button.vue</title>
<g id="a_node7"><a xlink:href="src/shared/ui/app-button.vue" xlink:title="app&#45;button.vue">
<path fill="#41f083" stroke="black" d="M385,-76C385,-76 319,-76 319,-76 316,-76 313,-73 313,-70 313,-70 313,-64 313,-64 313,-61 316,-58 319,-58 319,-58 385,-58 385,-58 388,-58 391,-61 391,-64 391,-64 391,-70 391,-70 391,-73 388,-76 385,-76"/>
<text text-anchor="start" x="321" y="-64.8" font-family="Helvetica,sans-Serif" font-size="9.00">app&#45;button.vue</text>
</a>
</g>
</g>
<!-- src/modules/auth&#45;&gt;src/shared/ui/app&#45;button.vue -->
<g id="edge7" class="edge">
<title>src/modules/auth&#45;&gt;src/shared/ui/app&#45;button.vue</title>
<path fill="none" stroke="#000000" stroke-width="2" stroke-opacity="0.200000" d="M281.23,-68.45C289.17,-68.29 298.12,-68.1 306.89,-67.92"/>
<polygon fill="#000000" fill-opacity="0.200000" stroke="#000000" stroke-width="2" stroke-opacity="0.200000" points="306.97,-70.02 312.92,-67.79 306.88,-65.82 306.97,-70.02"/>
</g>
<!-- src/shared/ui/app&#45;input.vue -->
<g id="node8" class="node">
<title>src/shared/ui/app&#45;input.vue</title>
<g id="a_node8"><a xlink:href="src/shared/ui/app-input.vue" xlink:title="app&#45;input.vue">
<path fill="#41f083" stroke="black" d="M382.5,-106C382.5,-106 321.5,-106 321.5,-106 318.5,-106 315.5,-103 315.5,-100 315.5,-100 315.5,-94 315.5,-94 315.5,-91 318.5,-88 321.5,-88 321.5,-88 382.5,-88 382.5,-88 385.5,-88 388.5,-91 388.5,-94 388.5,-94 388.5,-100 388.5,-100 388.5,-103 385.5,-106 382.5,-106"/>
<text text-anchor="start" x="323.5" y="-94.8" font-family="Helvetica,sans-Serif" font-size="9.00">app&#45;input.vue</text>
</a>
</g>
</g>
<!-- src/modules/auth&#45;&gt;src/shared/ui/app&#45;input.vue -->
<g id="edge8" class="edge">
<title>src/modules/auth&#45;&gt;src/shared/ui/app&#45;input.vue</title>
<path fill="none" stroke="#000000" stroke-width="2" stroke-opacity="0.200000" d="M281.18,-77.23C286.41,-78.84 291.87,-80.49 297,-82 301.83,-83.42 306.92,-84.88 311.95,-86.3"/>
<polygon fill="#000000" fill-opacity="0.200000" stroke="#000000" stroke-width="2" stroke-opacity="0.200000" points="311.48,-88.35 317.83,-87.95 312.62,-84.31 311.48,-88.35"/>
</g>
<!-- src/modules/dashboard&#45;&gt;src/modules/auth -->
<g id="edge11" class="edge">
<title>src/modules/dashboard&#45;&gt;src/modules/auth</title>
<path fill="none" stroke="#000000" stroke-opacity="0.200000" d="M214.35,-69C216.44,-69 218.55,-69 220.65,-69"/>
<polygon fill="none" stroke="#000000" stroke-opacity="0.200000" points="220.9,-71.1 226.9,-69 220.9,-66.9 220.9,-71.1"/>
</g>
<!-- src/modules/dashboard&#45;&gt;src/shared/ui/app&#45;button.vue -->
<g id="edge10" class="edge">
<title>src/modules/dashboard&#45;&gt;src/shared/ui/app&#45;button.vue</title>
<path fill="none" stroke="#000000" stroke-width="2" stroke-opacity="0.200000" d="M205.74,-59.92C212.42,-57.49 219.9,-55.22 227,-54 254.04,-49.37 284.71,-52.51 308.78,-56.86"/>
<polygon fill="#000000" fill-opacity="0.200000" stroke="#000000" stroke-width="2" stroke-opacity="0.200000" points="308.46,-58.94 314.75,-57.99 309.24,-54.81 308.46,-58.94"/>
</g>
<!-- src/main.ts -->
<g id="node5" class="node">
<title>src/main.ts</title>
<g id="a_node5"><a xlink:href="src/main.ts" xlink:title="main.ts">
<path fill="#ddfeff" stroke="black" d="M64,-114C64,-114 22,-114 22,-114 19,-114 16,-111 16,-108 16,-108 16,-102 16,-102 16,-99 19,-96 22,-96 22,-96 64,-96 64,-96 67,-96 70,-99 70,-102 70,-102 70,-108 70,-108 70,-111 67,-114 64,-114"/>
<text text-anchor="start" x="28" y="-102.8" font-family="Helvetica,sans-Serif" font-size="9.00">main.ts</text>
</a>
</g>
</g>
<!-- src/main.ts&#45;&gt;src/app.vue -->
<g id="edge4" class="edge">
<title>src/main.ts&#45;&gt;src/app.vue</title>
<path fill="none" stroke="#000000" stroke-width="2" stroke-opacity="0.200000" d="M64.21,-95.98C70.14,-93.34 76.72,-90.4 82.97,-87.62"/>
<polygon fill="#000000" fill-opacity="0.200000" stroke="#000000" stroke-width="2" stroke-opacity="0.200000" points="83.95,-89.47 88.58,-85.11 82.24,-85.64 83.95,-89.47"/>
</g>
<!-- src/main.ts&#45;&gt;src/modules/auth -->
<g id="edge5" class="edge">
<title>src/main.ts&#45;&gt;src/modules/auth</title>
<path fill="none" stroke="#000000" stroke-width="2" stroke-opacity="0.200000" d="M70.2,-105.57C104.09,-105.63 164.63,-103.4 214,-89 220.36,-87.15 226.9,-84.24 232.76,-81.22"/>
<polygon fill="#000000" fill-opacity="0.200000" stroke="#000000" stroke-width="2" stroke-opacity="0.200000" points="234.09,-82.89 238.37,-78.18 232.09,-79.19 234.09,-82.89"/>
</g>
<!-- src/style.css -->
<g id="node6" class="node">
<title>src/style.css</title>
<g id="a_node6"><a xlink:href="src/style.css" xlink:title="style.css">
<path fill="#ffffcc" stroke="black" d="M131,-136C131,-136 89,-136 89,-136 86,-136 83,-133 83,-130 83,-130 83,-124 83,-124 83,-121 86,-118 89,-118 89,-118 131,-118 131,-118 134,-118 137,-121 137,-124 137,-124 137,-130 137,-130 137,-133 134,-136 131,-136"/>
<text text-anchor="start" x="92.5" y="-124.8" font-family="Helvetica,sans-Serif" font-size="9.00">style.css</text>
</a>
</g>
</g>
<!-- src/main.ts&#45;&gt;src/style.css -->
<g id="edge6" class="edge">
<title>src/main.ts&#45;&gt;src/style.css</title>
<path fill="none" stroke="#000000" stroke-width="2" stroke-opacity="0.200000" d="M70.06,-113.82C72.32,-114.58 74.61,-115.36 76.9,-116.14"/>
<polygon fill="#000000" fill-opacity="0.200000" stroke="#000000" stroke-width="2" stroke-opacity="0.200000" points="76.57,-118.24 82.93,-118.18 77.92,-114.26 76.57,-118.24"/>
</g>
</g>
</svg>
