<?xml version="1.0" encoding="UTF-8" standalone="no"?>
<!DOCTYPE svg PUBLIC "-//W3C//DTD SVG 1.1//EN"
 "http://www.w3.org/Graphics/SVG/1.1/DTD/svg11.dtd">
<!-- Generated by graphviz version 2.43.0 (0)
 -->
<!-- Title: dependency&#45;cruiser output Pages: 1 -->
<svg width="329pt" height="120pt"
 viewBox="0.00 0.00 329.00 120.00" xmlns="http://www.w3.org/2000/svg" xmlns:xlink="http://www.w3.org/1999/xlink">
<g id="graph0" class="graph" transform="scale(1 1) rotate(0) translate(4 116)">
<title>dependency&#45;cruiser output</title>
<polygon fill="white" stroke="transparent" points="-4,4 -4,-116 325,-116 325,4 -4,4"/>
<g id="clust1" class="cluster">
<title>cluster_src</title>
<path fill="#ffffff" stroke="black" stroke-width="2" d="M20,-8C20,-8 301,-8 301,-8 307,-8 313,-14 313,-20 313,-20 313,-92 313,-92 313,-98 307,-104 301,-104 301,-104 20,-104 20,-104 14,-104 8,-98 8,-92 8,-92 8,-20 8,-20 8,-14 14,-8 20,-8"/>
<text text-anchor="middle" x="160.5" y="-92.8" font-family="Helvetica,sans-Serif" font-weight="bold" font-size="9.00">src</text>
</g>
<g id="clust2" class="cluster">
<title>cluster_src/modules</title>
<path fill="#ffffff" stroke="black" stroke-width="2" d="M90,-16C90,-16 203,-16 203,-16 209,-16 215,-22 215,-28 215,-28 215,-56 215,-56 215,-62 209,-68 203,-68 203,-68 90,-68 90,-68 84,-68 78,-62 78,-56 78,-56 78,-28 78,-28 78,-22 84,-16 90,-16"/>
<text text-anchor="middle" x="146.5" y="-56.8" font-family="Helvetica,sans-Serif" font-weight="bold" font-size="9.00">modules</text>
</g>
<g id="clust3" class="cluster">
<title>cluster_src/shared</title>
<path fill="#ffffff" stroke="black" stroke-width="2" d="M235,-21C235,-21 293,-21 293,-21 299,-21 305,-27 305,-33 305,-33 305,-61 305,-61 305,-67 299,-73 293,-73 293,-73 235,-73 235,-73 229,-73 223,-67 223,-61 223,-61 223,-33 223,-33 223,-27 229,-21 235,-21"/>
<text text-anchor="middle" x="264" y="-61.8" font-family="Helvetica,sans-Serif" font-weight="bold" font-size="9.00">shared</text>
</g>
<!-- src/main.ts -->
<g id="node1" class="node">
<title>src/main.ts</title>
<g id="a_node1"><a xlink:href="src/main.ts" xlink:title="main.ts">
<path fill="#ddfeff" stroke="black" d="M64,-64C64,-64 22,-64 22,-64 19,-64 16,-61 16,-58 16,-58 16,-52 16,-52 16,-49 19,-46 22,-46 22,-46 64,-46 64,-46 67,-46 70,-49 70,-52 70,-52 70,-58 70,-58 70,-61 67,-64 64,-64"/>
<text text-anchor="start" x="28" y="-52.8" font-family="Helvetica,sans-Serif" font-size="9.00">main.ts</text>
</a>
</g>
</g>
<!-- src/modules/alerts -->
<g id="node2" class="node">
<title>src/modules/alerts</title>
<g id="a_node2"><a xlink:href="src/modules/alerts" xlink:title="alerts">
<polygon fill="#ffffcc" stroke="black" points="140,-42 88,-42 86,-40 86,-24 138,-24 140,-26 140,-42"/>
<polyline fill="none" stroke="black" points="138,-40 86,-40 "/>
<polyline fill="none" stroke="black" points="138,-40 138,-24 "/>
<polyline fill="none" stroke="black" points="138,-40 140,-42 "/>
<text text-anchor="start" x="101.5" y="-30.8" font-family="Helvetica,sans-Serif" font-size="9.00">alerts</text>
</a>
</g>
</g>
<!-- src/main.ts&#45;&gt;src/modules/alerts -->
<g id="edge1" class="edge">
<title>src/main.ts&#45;&gt;src/modules/alerts</title>
<path fill="none" stroke="#000000" stroke-width="2" stroke-opacity="0.200000" d="M70.1,-46.56C73.28,-45.53 76.56,-44.47 79.82,-43.41"/>
<polygon fill="#000000" fill-opacity="0.200000" stroke="#000000" stroke-width="2" stroke-opacity="0.200000" points="80.57,-45.37 85.64,-41.53 79.28,-41.38 80.57,-45.37"/>
</g>
<!-- src/modules/tracker -->
<g id="node3" class="node">
<title>src/modules/tracker</title>
<g id="a_node3"><a xlink:href="src/modules/tracker" xlink:title="tracker">
<polygon fill="#ffffcc" stroke="black" points="207,-42 155,-42 153,-40 153,-24 205,-24 207,-26 207,-42"/>
<polyline fill="none" stroke="black" points="205,-40 153,-40 "/>
<polyline fill="none" stroke="black" points="205,-40 205,-24 "/>
<polyline fill="none" stroke="black" points="205,-40 207,-42 "/>
<text text-anchor="start" x="166" y="-30.8" font-family="Helvetica,sans-Serif" font-size="9.00">tracker</text>
</a>
</g>
</g>
<!-- src/main.ts&#45;&gt;src/modules/tracker -->
<g id="edge2" class="edge">
<title>src/main.ts&#45;&gt;src/modules/tracker</title>
<path fill="none" stroke="#000000" stroke-width="2" stroke-opacity="0.200000" d="M70.38,-55.15C89.84,-54.77 116.84,-53.18 140,-48 144.28,-47.04 148.72,-45.7 153,-44.21"/>
<polygon fill="#000000" fill-opacity="0.200000" stroke="#000000" stroke-width="2" stroke-opacity="0.200000" points="153.8,-46.15 158.71,-42.1 152.35,-42.21 153.8,-46.15"/>
</g>
<!-- src/shared/event&#45;bus.ts -->
<g id="node4" class="node">
<title>src/shared/event&#45;bus.ts</title>
<g id="a_node4"><a xlink:href="src/shared/event-bus.ts" xlink:title="event&#45;bus.ts">
<path fill="#ddfeff" stroke="black" d="M291,-47C291,-47 237,-47 237,-47 234,-47 231,-44 231,-41 231,-41 231,-35 231,-35 231,-32 234,-29 237,-29 237,-29 291,-29 291,-29 294,-29 297,-32 297,-35 297,-35 297,-41 297,-41 297,-44 294,-47 291,-47"/>
<text text-anchor="start" x="239" y="-35.8" font-family="Helvetica,sans-Serif" font-size="9.00">event&#45;bus.ts</text>
</a>
</g>
</g>
<!-- src/main.ts&#45;&gt;src/shared/event&#45;bus.ts -->
<g id="edge3" class="edge">
<title>src/main.ts&#45;&gt;src/shared/event&#45;bus.ts</title>
<path fill="none" stroke="#000000" stroke-width="2" stroke-opacity="0.200000" d="M59.74,-64.17C65.32,-66.93 71.76,-69.61 78,-71 137.42,-84.28 156.85,-89.06 215,-71 227.71,-67.05 240.04,-58.44 249.02,-51"/>
<polygon fill="#000000" fill-opacity="0.200000" stroke="#000000" stroke-width="2" stroke-opacity="0.200000" points="250.46,-52.53 253.65,-47.03 247.73,-49.35 250.46,-52.53"/>
</g>
<!-- src/modules/alerts&#45;&gt;src/modules/tracker -->
<g id="edge4" class="edge">
<title>src/modules/alerts&#45;&gt;src/modules/tracker</title>
<g id="a_edge4"><a xlink:title="no&#45;cross&#45;slice&#45;imports">
<path fill="none" stroke="red" stroke-width="2" d="M140.06,-33C142.32,-33 144.61,-33 146.9,-33"/>
<polygon fill="red" stroke="red" stroke-width="2" points="146.93,-35.1 152.93,-33 146.93,-30.9 146.93,-35.1"/>
</a>
</g>
<text text-anchor="middle" x="100.97" y="-25.8" font-family="Helvetica,sans-Serif" font-size="9.00" fill="red">no&#45;cross&#45;slice&#45;imports</text>
</g>
<!-- src/modules/tracker&#45;&gt;src/shared/event&#45;bus.ts -->
<g id="edge5" class="edge">
<title>src/modules/tracker&#45;&gt;src/shared/event&#45;bus.ts</title>
<path fill="none" stroke="#000000" stroke-width="2" stroke-opacity="0.200000" d="M207.4,-34.61C212.9,-34.94 218.8,-35.31 224.64,-35.66"/>
<polygon fill="#000000" fill-opacity="0.200000" stroke="#000000" stroke-width="2" stroke-opacity="0.200000" points="224.8,-37.77 230.91,-36.04 225.05,-33.58 224.8,-37.77"/>
</g>
</g>
</svg>
