<?xml version="1.0" encoding="UTF-8" standalone="no"?>
<!DOCTYPE svg PUBLIC "-//W3C//DTD SVG 1.1//EN"
 "http://www.w3.org/Graphics/SVG/1.1/DTD/svg11.dtd">
<!-- Generated by graphviz version 2.43.0 (0)
 -->
<!-- Title: dependency&#45;cruiser output Pages: 1 -->
<svg width="414pt" height="170pt"
 viewBox="0.00 0.00 414.19 170.00" xmlns="http://www.w3.org/2000/svg" xmlns:xlink="http://www.w3.org/1999/xlink">
<g id="graph0" class="graph" transform="scale(1 1) rotate(0) translate(4 166)">
<title>dependency&#45;cruiser output</title>
<polygon fill="white" stroke="transparent" points="-4,4 -4,-166 410.19,-166 410.19,4 -4,4"/>
<g id="clust1" class="cluster">
<title>cluster_src</title>
<path fill="#ffffff" stroke="black" stroke-width="2" d="M64.19,-8C64.19,-8 386.19,-8 386.19,-8 392.19,-8 398.19,-14 398.19,-20 398.19,-20 398.19,-142 398.19,-142 398.19,-148 392.19,-154 386.19,-154 386.19,-154 64.19,-154 64.19,-154 58.19,-154 52.19,-148 52.19,-142 52.19,-142 52.19,-20 52.19,-20 52.19,-14 58.19,-8 64.19,-8"/>
<text text-anchor="middle" x="225.19" y="-142.8" font-family="Helvetica,sans-Serif" font-weight="bold" font-size="9.00">src</text>
</g>
<g id="clust2" class="cluster">
<title>cluster_src/modules</title>
<path fill="#ffffff" stroke="black" stroke-width="2" d="M134.19,-22C134.19,-22 258.19,-22 258.19,-22 264.19,-22 270.19,-28 270.19,-34 270.19,-34 270.19,-62 270.19,-62 270.19,-68 264.19,-74 258.19,-74 258.19,-74 134.19,-74 134.19,-74 128.19,-74 122.19,-68 122.19,-62 122.19,-62 122.19,-34 122.19,-34 122.19,-28 128.19,-22 134.19,-22"/>
<text text-anchor="middle" x="196.19" y="-62.8" font-family="Helvetica,sans-Serif" font-weight="bold" font-size="9.00">modules</text>
</g>
<g id="clust3" class="cluster">
<title>cluster_src/shared</title>
<path fill="#ffffff" stroke="black" stroke-width="2" d="M290.19,-16C290.19,-16 378.19,-16 378.19,-16 384.19,-16 390.19,-22 390.19,-28 390.19,-28 390.19,-116 390.19,-116 390.19,-122 384.19,-128 378.19,-128 378.19,-128 290.19,-128 290.19,-128 284.19,-128 278.19,-122 278.19,-116 278.19,-116 278.19,-28 278.19,-28 278.19,-22 284.19,-16 290.19,-16"/>
<text text-anchor="middle" x="334.19" y="-116.8" font-family="Helvetica,sans-Serif" font-weight="bold" font-size="9.00">shared</text>
</g>
<!-- src/main.ts -->
<g id="node1" class="node">
<title>src/main.ts</title>
<g id="a_node1"><a xlink:href="src/main.ts" xlink:title="main.ts">
<path fill="#ddfeff" stroke="black" d="M108.19,-73C108.19,-73 66.19,-73 66.19,-73 63.19,-73 60.19,-70 60.19,-67 60.19,-67 60.19,-61 60.19,-61 60.19,-58 63.19,-55 66.19,-55 66.19,-55 108.19,-55 108.19,-55 111.19,-55 114.19,-58 114.19,-61 114.19,-61 114.19,-67 114.19,-67 114.19,-70 111.19,-73 108.19,-73"/>
<text text-anchor="start" x="72.19" y="-61.8" font-family="Helvetica,sans-Serif" font-size="9.00">main.ts</text>
</a>
</g>
</g>
<!-- src/modules/billing -->
<g id="node2" class="node">
<title>src/modules/billing</title>
<g id="a_node2"><a xlink:href="src/modules/billing" xlink:title="billing">
<polygon fill="#ffffcc" stroke="black" points="262.19,-48 210.19,-48 208.19,-46 208.19,-30 260.19,-30 262.19,-32 262.19,-48"/>
<polyline fill="none" stroke="black" points="260.19,-46 208.19,-46 "/>
<polyline fill="none" stroke="black" points="260.19,-46 260.19,-30 "/>
<polyline fill="none" stroke="black" points="260.19,-46 262.19,-48 "/>
<text text-anchor="start" x="222.69" y="-36.8" font-family="Helvetica,sans-Serif" font-size="9.00">billing</text>
</a>
</g>
</g>
<!-- src/main.ts&#45;&gt;src/modules/billing -->
<g id="edge1" class="edge">
<title>src/main.ts&#45;&gt;src/modules/billing</title>
<path fill="none" stroke="#000000" stroke-width="2" stroke-opacity="0.200000" d="M92.75,-55C98.24,-45.28 108.46,-30.35 122.19,-24 149.77,-11.25 184.97,-19.41 208.48,-27.86"/>
<polygon fill="#000000" fill-opacity="0.200000" stroke="#000000" stroke-width="2" stroke-opacity="0.200000" points="207.84,-29.86 214.19,-30 209.31,-25.93 207.84,-29.86"/>
</g>
<!-- src/modules/notifications -->
<g id="node3" class="node">
<title>src/modules/notifications</title>
<g id="a_node3"><a xlink:href="src/modules/notifications" xlink:title="notifications">
<polygon fill="#ffffcc" stroke="black" points="195.19,-48 132.19,-48 130.19,-46 130.19,-30 193.19,-30 195.19,-32 195.19,-48"/>
<polyline fill="none" stroke="black" points="193.19,-46 130.19,-46 "/>
<polyline fill="none" stroke="black" points="193.19,-46 193.19,-30 "/>
<polyline fill="none" stroke="black" points="193.19,-46 195.19,-48 "/>
<text text-anchor="start" x="138.19" y="-36.8" font-family="Helvetica,sans-Serif" font-size="9.00">notifications</text>
</a>
</g>
</g>
<!-- src/main.ts&#45;&gt;src/modules/notifications -->
<g id="edge2" class="edge">
<title>src/main.ts&#45;&gt;src/modules/notifications</title>
<g id="a_edge2"><a xlink:title="enforce&#45;public&#45;api&#45;gatekeeper">
<path fill="none" stroke="red" stroke-width="2" d="M113.79,-54.9C116.62,-53.91 119.47,-52.93 122.19,-52 124.1,-51.35 126.07,-50.68 128.06,-50.01"/>
<polygon fill="red" stroke="red" stroke-width="2" points="129.02,-51.91 134.04,-48.02 127.69,-47.93 129.02,-51.91"/>
</a>
</g>
<text text-anchor="middle" x="62" y="-44.18" font-family="Helvetica,sans-Serif" font-size="9.00" fill="red">enforce&#45;public&#45;api&#45;gatekeeper</text>
</g>
<!-- src/shared/command&#45;runner.ts -->
<g id="node4" class="node">
<title>src/shared/command&#45;runner.ts</title>
<g id="a_node4"><a xlink:href="src/shared/command-runner.ts" xlink:title="command&#45;runner.ts">
<path fill="#ddfeff" stroke="black" d="M376.19,-102C376.19,-102 292.19,-102 292.19,-102 289.19,-102 286.19,-99 286.19,-96 286.19,-96 286.19,-90 286.19,-90 286.19,-87 289.19,-84 292.19,-84 292.19,-84 376.19,-84 376.19,-84 379.19,-84 382.19,-87 382.19,-90 382.19,-90 382.19,-96 382.19,-96 382.19,-99 379.19,-102 376.19,-102"/>
<text text-anchor="start" x="294.19" y="-90.8" font-family="Helvetica,sans-Serif" font-size="9.00">command&#45;runner.ts</text>
</a>
</g>
</g>
<!-- src/main.ts&#45;&gt;src/shared/command&#45;runner.ts -->
<g id="edge3" class="edge">
<title>src/main.ts&#45;&gt;src/shared/command&#45;runner.ts</title>
<path fill="none" stroke="#000000" stroke-width="2" stroke-opacity="0.200000" d="M100.42,-73.17C106.61,-77.28 114.44,-81.71 122.19,-84 174.25,-99.37 236.66,-99.98 280.04,-97.75"/>
<polygon fill="#000000" fill-opacity="0.200000" stroke="#000000" stroke-width="2" stroke-opacity="0.200000" points="280.15,-99.85 286.03,-97.42 279.92,-95.65 280.15,-99.85"/>
</g>
<!-- src/shared/logger.ts -->
<g id="node5" class="node">
<title>src/shared/logger.ts</title>
<g id="a_node5"><a xlink:href="src/shared/logger.ts" xlink:title="logger.ts">
<path fill="#ddfeff" stroke="black" d="M355.19,-72C355.19,-72 313.19,-72 313.19,-72 310.19,-72 307.19,-69 307.19,-66 307.19,-66 307.19,-60 307.19,-60 307.19,-57 310.19,-54 313.19,-54 313.19,-54 355.19,-54 355.19,-54 358.19,-54 361.19,-57 361.19,-60 361.19,-60 361.19,-66 361.19,-66 361.19,-69 358.19,-72 355.19,-72"/>
<text text-anchor="start" x="316.19" y="-60.8" font-family="Helvetica,sans-Serif" font-size="9.00">logger.ts</text>
</a>
</g>
</g>
<!-- src/main.ts&#45;&gt;src/shared/logger.ts -->
<g id="edge4" class="edge">
<title>src/main.ts&#45;&gt;src/shared/logger.ts</title>
<path fill="none" stroke="#000000" stroke-width="2" stroke-opacity="0.200000" d="M108.34,-73.08C112.81,-74.71 117.59,-76.15 122.19,-77 186.88,-88.94 204.81,-84.18 270.19,-77 280.34,-75.89 291.24,-73.79 301.08,-71.56"/>
<polygon fill="#000000" fill-opacity="0.200000" stroke="#000000" stroke-width="2" stroke-opacity="0.200000" points="301.68,-73.57 307.05,-70.15 300.72,-69.48 301.68,-73.57"/>
</g>
<!-- src/modules/billing&#45;&gt;src/shared/logger.ts -->
<g id="edge6" class="edge">
<title>src/modules/billing&#45;&gt;src/shared/logger.ts</title>
<path fill="none" stroke="#000000" stroke-width="2" stroke-opacity="0.200000" d="M262.44,-45.49C274.3,-48.43 288.43,-51.93 300.93,-55.02"/>
<polygon fill="#000000" fill-opacity="0.200000" stroke="#000000" stroke-width="2" stroke-opacity="0.200000" points="300.59,-57.1 306.92,-56.5 301.6,-53.02 300.59,-57.1"/>
</g>
<!-- src/shared/event&#45;bus.ts -->
<g id="node6" class="node">
<title>src/shared/event&#45;bus.ts</title>
<g id="a_node6"><a xlink:href="src/shared/event-bus.ts" xlink:title="event&#45;bus.ts">
<path fill="#ddfeff" stroke="black" d="M361.19,-42C361.19,-42 307.19,-42 307.19,-42 304.19,-42 301.19,-39 301.19,-36 301.19,-36 301.19,-30 301.19,-30 301.19,-27 304.19,-24 307.19,-24 307.19,-24 361.19,-24 361.19,-24 364.19,-24 367.19,-27 367.19,-30 367.19,-30 367.19,-36 367.19,-36 367.19,-39 364.19,-42 361.19,-42"/>
<text text-anchor="start" x="309.19" y="-30.8" font-family="Helvetica,sans-Serif" font-size="9.00">event&#45;bus.ts</text>
</a>
</g>
</g>
<!-- src/modules/billing&#45;&gt;src/shared/event&#45;bus.ts -->
<g id="edge5" class="edge">
<title>src/modules/billing&#45;&gt;src/shared/event&#45;bus.ts</title>
<path fill="none" stroke="#000000" stroke-width="2" stroke-opacity="0.200000" d="M262.44,-37.38C272.38,-36.76 283.92,-36.05 294.76,-35.38"/>
<polygon fill="#000000" fill-opacity="0.200000" stroke="#000000" stroke-width="2" stroke-opacity="0.200000" points="295.18,-37.46 301.04,-34.99 294.92,-33.26 295.18,-37.46"/>
</g>
<!-- src/modules/notifications&#45;&gt;src/modules/billing -->
<g id="edge9" class="edge">
<title>src/modules/notifications&#45;&gt;src/modules/billing</title>
<path fill="none" stroke="#000000" stroke-width="2" stroke-opacity="0.200000" d="M195.23,-39C197.36,-39 199.5,-39 201.63,-39"/>
<polygon fill="#000000" fill-opacity="0.200000" stroke="#000000" stroke-width="2" stroke-opacity="0.200000" points="201.96,-41.1 207.96,-39 201.96,-36.9 201.96,-41.1"/>
</g>
<!-- src/modules/notifications&#45;&gt;src/shared/logger.ts -->
<g id="edge8" class="edge">
<title>src/modules/notifications&#45;&gt;src/shared/logger.ts</title>
<path fill="none" stroke="#000000" stroke-width="2" stroke-opacity="0.200000" d="M186.94,-48.1C189.75,-49.34 192.56,-50.66 195.19,-52 201.24,-55.08 201.69,-58.07 208.19,-60 238.51,-68.98 274.79,-68.71 300.44,-66.81"/>
<polygon fill="#000000" fill-opacity="0.200000" stroke="#000000" stroke-width="2" stroke-opacity="0.200000" points="300.91,-68.88 306.72,-66.3 300.57,-64.69 300.91,-68.88"/>
</g>
<!-- src/modules/notifications&#45;&gt;src/shared/event&#45;bus.ts -->
<g id="edge7" class="edge">
<title>src/modules/notifications&#45;&gt;src/shared/event&#45;bus.ts</title>
<path fill="none" stroke="#000000" stroke-width="2" stroke-opacity="0.200000" d="M185.97,-48.09C192.96,-50.51 200.79,-52.79 208.19,-54 235.38,-58.46 244.05,-62.71 270.19,-54 274.41,-52.59 274.2,-49.95 278.19,-48 283.53,-45.39 289.38,-43.18 295.22,-41.33"/>
<polygon fill="#000000" fill-opacity="0.200000" stroke="#000000" stroke-width="2" stroke-opacity="0.200000" points="295.89,-43.32 301.03,-39.59 294.68,-39.29 295.89,-43.32"/>
</g>
</g>
</svg>
